<?xml version="1.0" encoding="windows-1252"?><svg xmlns="http://www.w3.org/2000/svg" viewBox="171 16 514.844 514.844" xmlns:latexdraw="http://latexdraw.sourceforge.net/namespaces/latexdraw" version="1.1" baseProfile="full">
    <g>
        <g id="id221317400" latexdraw:type="grid" latexdraw:XLabelsSouth="true" latexdraw:YLabelsWest="true" latexdraw:gridUnit="4.74843662017256" latexdraw:gridEnd="2.0 2.0" latexdraw:gridStart="0.0 0.0" latexdraw:origin="0.0 0.0" transform="translate(191.0 510.84366201725646)">
            <g stroke-width="0.7055555555555556" stroke="#7f7f7f" stroke-linecap="round" latexdraw:type="subGrid" latexdraw:gridDots="0" latexdraw:subDiv="5.0">
                <line x1="0.0" x2="0.0" y1="0.0" y2="-474.843662017256"/>
                <line x1="47.4843662017256" x2="47.4843662017256" y1="0.0" y2="-474.843662017256"/>
                <line x1="94.9687324034512" x2="94.9687324034512" y1="0.0" y2="-474.843662017256"/>
                <line x1="142.4530986051768" x2="142.4530986051768" y1="0.0" y2="-474.843662017256"/>
                <line x1="189.9374648069024" x2="189.9374648069024" y1="0.0" y2="-474.843662017256"/>
                <line x1="237.421831008628" x2="237.421831008628" y1="0.0" y2="-474.843662017256"/>
                <line x1="237.421831008628" x2="237.421831008628" y1="0.0" y2="-474.843662017256"/>
                <line x1="284.9061972103536" x2="284.9061972103536" y1="0.0" y2="-474.843662017256"/>
                <line x1="332.3905634120792" x2="332.3905634120792" y1="0.0" y2="-474.843662017256"/>
                <line x1="379.8749296138048" x2="379.8749296138048" y1="0.0" y2="-474.843662017256"/>
                <line x1="427.3592958155304" x2="427.3592958155304" y1="0.0" y2="-474.843662017256"/>
                <line x1="474.843662017256" x2="474.843662017256" y1="0.0" y2="-474.843662017256"/>
                <line x1="0.0" x2="474.84366201725607" y1="-0.0" y2="-0.0"/>
                <line x1="0.0" x2="474.84366201725607" y1="-47.4843662017256" y2="-47.4843662017256"/>
                <line x1="0.0" x2="474.84366201725607" y1="-94.9687324034512" y2="-94.9687324034512"/>
                <line x1="0.0" x2="474.84366201725607" y1="-142.4530986051768" y2="-142.4530986051768"/>
                <line x1="0.0" x2="474.84366201725607" y1="-189.9374648069024" y2="-189.9374648069024"/>
                <line x1="0.0" x2="474.84366201725607" y1="-237.421831008628" y2="-237.421831008628"/>
                <line x1="0.0" x2="474.84366201725607" y1="-237.421831008628" y2="-237.421831008628"/>
                <line x1="0.0" x2="474.84366201725607" y1="-284.9061972103536" y2="-284.9061972103536"/>
                <line x1="0.0" x2="474.84366201725607" y1="-332.3905634120792" y2="-332.3905634120792"/>
                <line x1="0.0" x2="474.84366201725607" y1="-379.8749296138048" y2="-379.8749296138048"/>
                <line x1="0.0" x2="474.84366201725607" y1="-427.3592958155304" y2="-427.3592958155304"/>
                <line x1="0.0" x2="474.84366201725607" y1="-474.843662017256" y2="-474.843662017256"/>
            </g>
            <g stroke-width="1.4111111111111112" stroke="black" stroke-linecap="square" latexdraw:type="grid">
                <line x1="0.0" x2="0.0" y1="0.0" y2="-474.843662017256"/>
                <line x1="237.421831008628" x2="237.421831008628" y1="0.0" y2="-474.843662017256"/>
                <line x1="474.843662017256" x2="474.843662017256" y1="0.0" y2="-474.843662017256"/>
                <line x1="0.0" x2="474.84366201725607" y1="-0.0" y2="-0.0"/>
                <line x1="0.0" x2="474.84366201725607" y1="-237.421831008628" y2="-237.421831008628"/>
                <line x1="0.0" x2="474.84366201725607" y1="-474.843662017256" y2="-474.843662017256"/>
            </g>
            <g font-size="10" stroke="black" latexdraw:type="text">
                <text x="3" y="11">0</text>
                <text x="240" y="11">1</text>
                <text x="478" y="11">2</text>
                <text x="-8" y="-478">2</text>
                <text x="-8" y="-240">1</text>
                <text x="-8" y="-3">0</text>
            </g>
        </g>
    </g>
    <defs/>
    <metadata>
        <latexdraw:metadata>
            <latexdraw:centreHoriz>false</latexdraw:centreHoriz>
            <latexdraw:positionVert/>
            <latexdraw:zoom>1.0</latexdraw:zoom>
            <latexdraw:vpx>0.5</latexdraw:vpx>
            <latexdraw:vpy>0.4</latexdraw:vpy>
        </latexdraw:metadata>
    </metadata>
</svg>
